<svg xmlns="http://www.w3.org/2000/svg" viewBox="0 0 512 512" width="512" height="512">
  <defs>
    <radialGradient id="glow" cx="50%" cy="38%" r="55%">
      <stop offset="0%" stop-color="#4a3410"/>
      <stop offset="55%" stop-color="#221a10"/>
      <stop offset="100%" stop-color="#16140f"/>
    </radialGradient>
    <linearGradient id="flame" x1="0" y1="0" x2="0" y2="1">
      <stop offset="0%" stop-color="#fff2c4"/>
      <stop offset="45%" stop-color="#ffc255"/>
      <stop offset="100%" stop-color="#e8722a"/>
    </linearGradient>
    <linearGradient id="wax" x1="0" y1="0" x2="0" y2="1">
      <stop offset="0%" stop-color="#f2e6cf"/>
      <stop offset="100%" stop-color="#d8c4a0"/>
    </linearGradient>
  </defs>
  <rect width="512" height="512" rx="112" fill="url(#glow)"/>
  <!-- flame halo -->
  <ellipse cx="256" cy="196" rx="86" ry="120" fill="#ffb64a" opacity="0.16"/>
  <!-- candle body -->
  <rect x="206" y="250" width="100" height="176" rx="14" fill="url(#wax)"/>
  <ellipse cx="256" cy="250" rx="50" ry="12" fill="#fffaf0"/>
  <!-- wick -->
  <rect x="252" y="214" width="8" height="42" rx="4" fill="#3a2c1a"/>
  <!-- flame -->
  <path d="M256 116 C300 168 300 214 256 236 C212 214 212 168 256 116 Z" fill="url(#flame)"/>
  <path d="M256 158 C278 188 278 214 256 226 C234 214 234 188 256 158 Z" fill="#fff6d8" opacity="0.9"/>
</svg>
